<svg xmlns="http://www.w3.org/2000/svg" viewBox="0 0 1024 1024">
  <defs>
    <linearGradient id="bg" x1="190" y1="124" x2="842" y2="896" gradientUnits="userSpaceOnUse">
      <stop offset="0" stop-color="#0EA5B7"/>
      <stop offset="0.48" stop-color="#05789C"/>
      <stop offset="1" stop-color="#073B68"/>
    </linearGradient>
    <linearGradient id="sea" x1="192" y1="696" x2="832" y2="782" gradientUnits="userSpaceOnUse">
      <stop offset="0" stop-color="#67E8F9"/>
      <stop offset="0.52" stop-color="#22D3EE"/>
      <stop offset="1" stop-color="#06B6D4"/>
    </linearGradient>
    <linearGradient id="ship" x1="270" y1="386" x2="762" y2="696" gradientUnits="userSpaceOnUse">
      <stop offset="0" stop-color="#FFFFFF"/>
      <stop offset="1" stop-color="#DFF8FF"/>
    </linearGradient>
    <linearGradient id="cargo" x1="410" y1="265" x2="625" y2="520" gradientUnits="userSpaceOnUse">
      <stop offset="0" stop-color="#FACC15"/>
      <stop offset="0.55" stop-color="#F59E0B"/>
      <stop offset="1" stop-color="#D97706"/>
    </linearGradient>
    <filter id="tileShadow" x="-18%" y="-18%" width="136%" height="136%">
      <feDropShadow dx="0" dy="30" stdDeviation="36" flood-color="#0F172A" flood-opacity="0.22"/>
    </filter>
    <filter id="symbolShadow" x="-16%" y="-16%" width="132%" height="132%">
      <feDropShadow dx="0" dy="18" stdDeviation="18" flood-color="#083344" flood-opacity="0.28"/>
    </filter>
    <clipPath id="tileClip">
      <rect x="96" y="96" width="832" height="832" rx="198"/>
    </clipPath>
  </defs>

  <rect width="1024" height="1024" fill="#F8FAFC"/>
  <rect x="96" y="96" width="832" height="832" rx="198" fill="url(#bg)" filter="url(#tileShadow)"/>

  <g clip-path="url(#tileClip)">
    <circle cx="810" cy="190" r="176" fill="#FFFFFF" opacity="0.08"/>
    <circle cx="198" cy="862" r="236" fill="#0F172A" opacity="0.14"/>
    <path fill="#FFFFFF" opacity="0.11" d="M124 635c86 62 174 77 276 34 88-37 156-91 260-63 79 21 140 68 218 67v119H124V635Z"/>
  </g>

  <g filter="url(#symbolShadow)">
    <path fill="none" stroke="#DFFBFF" stroke-width="34" stroke-linecap="round" stroke-linejoin="round" opacity="0.95"
      d="M308 370c92-65 202-76 310-28 51 23 91 56 126 98"/>
    <path fill="none" stroke="#FACC15" stroke-width="28" stroke-linecap="round" stroke-dasharray="2 72"
      d="M314 369c99-68 210-75 310-27 49 24 88 56 121 97"/>

    <path fill="url(#cargo)" d="M411 300 535 262l125 50v161l-127 49-122-49V300Z"/>
    <path fill="#FDE68A" opacity="0.45" d="M535 262v155l-124-42v-75l124-38Z"/>
    <path fill="#B45309" opacity="0.38" d="M535 417v105l125-49V312l-125 105Z"/>
    <path fill="none" stroke="#FFFFFF" stroke-width="12" stroke-linecap="round" stroke-linejoin="round" opacity="0.82"
      d="M411 300 535 262l125 50M535 262v260M411 376l122 42 127-48"/>

    <path fill="url(#ship)" d="M220 550h166l82 91h233l108-56c-15 78-58 140-128 187H346c-63-43-106-116-126-222Z"/>
    <path fill="#B9EEF8" d="M468 641h233l108-56c-10 55-34 102-72 141H534c-31-18-53-46-66-85Z"/>
    <path fill="#073B68" opacity="0.2" d="M326 612h95l42 48H352c-13-13-21-29-26-48Z"/>
    <path fill="#073B68" opacity="0.24" d="M589 660h47v34h-47zM658 660h47v34h-47z"/>
    <path fill="none" stroke="#083344" stroke-width="14" stroke-linecap="round" stroke-linejoin="round" opacity="0.32"
      d="M237 550h149l82 91h232l87-45"/>

    <path fill="url(#sea)" d="M142 727c73 43 145 43 217 0 74-44 150-44 225 0 74 43 147 43 220 0 32-19 64-30 98-31v166H142V727Z"/>
    <path fill="#ECFEFF" opacity="0.82" d="M143 740c72 33 143 29 216-12 73-42 149-42 224 0 74 41 146 45 219 12v42c-73 36-146 34-219-6-75-42-151-42-224 0-73 40-144 42-216 6v-42Z"/>
  </g>
</svg>
